#!OML:ASF X:\für Bonn\!DataBase\2005_08_12_Daniel\c3d\Daniel.ASF
:FULLY-SPECIFIED
:DEGREES
271
root 0.528082 15.6501 -16.7318 374.797 24.127 10.6978
lowerback 85.6677 -8.28134 10.9441
upperback 6.99332 1.77835 -3.6813
thorax -11.1755 1.64079 -9.36303
lowerneck -3.03915 -9.42949 -2.48672
upperneck 6.74003 -12.8442 7.80158
head 3.49599 -6.1322 2.44021
rclavicle -3.18055e-015 -5.37216e-014
rhumerus 227.177 -164.857 -257.187
rradius 6.69414
rwrist 40.8379
rhand -23.2629 7.40471
rfingers 7.12502
rthumb 3.18916 -22.5512
lclavicle -3.18055e-015 -5.37216e-014
lhumerus -23.4163 -18.6616 95.2954
lradius 52.9333
lwrist 14.1357
lhand -7.62823 -7.42826
lfingers 7.12502
lthumb 18.2665 21.7341
rfemur -54.1878 -10.4492 3.97394
rtibia 73.6287
rfoot -28.7317 -7.92559
rtoes -16.2733
lfemur -59.2018 -8.01562 -27.6724
ltibia 64.9435
lfoot -13.8598 -23.3262
ltoes -3.69772
272
root 0.548371 15.7057 -16.7308 374.533 23.9858 10.3752
lowerback 85.3323 -8.20496 10.8763
upperback 7.03664 1.70041 -3.75731
thorax -11.1985 1.60507 -9.40833
lowerneck -2.7541 -9.31829 -2.44482
upperneck 6.64027 -12.6885 7.76013
head 3.39119 -6.06501 2.44333
rclavicle 6.36111e-015 8.0514e-014
rhumerus 226.078 -165.143 -256.998
rradius 6.91142
rwrist 40.5774
rhand -23.4503 7.47172
rfingers 7.12502
rthumb 3.0082 -22.4868
lclavicle 6.36111e-015 8.0514e-014
lhumerus -23.5263 -18.511 95.2108
lradius 52.8136
lwrist 14.1241
lhand -7.58761 -7.42403
lfingers 7.12502
lthumb 18.3056 21.7346
rfemur -53.5356 -10.1438 4.201
rtibia 72.7612
rfoot -28.4813 -8.03499
rtoes -16.2066
lfemur -58.622 -8.17106 -27.3309
ltibia 64.3422
lfoot -13.8156 -22.9365
ltoes -3.93126
273
root 0.569642 15.761 -16.7274 374.285 23.8405 10.0483
lowerback 84.9613 -8.09119 10.7898
upperback 7.08147 1.64307 -3.80883
thorax -11.2243 1.57343 -9.42535
lowerneck -2.52463 -9.20085 -2.33804
upperneck 6.56353 -12.5249 7.65044
head 3.29373 -5.99235 2.40977
rclavicle -6.67916e-014 -3.09607e-014
rhumerus 224.962 -165.441 -256.776
rradius 7.14355
rwrist 40.4167
rhand -23.6285 7.44792
rfingers 7.12502
rthumb 2.83618 -22.513
lclavicle -6.67916e-014 -3.09607e-014
lhumerus -23.6079 -18.2876 95.1584
lradius 52.642
lwrist 14.056
lhand -7.56672 -7.46961
lfingers 7.12502
lthumb 18.3257 21.6872
rfemur -52.8812 -9.82278 4.42816
rtibia 71.867
rfoot -28.243 -8.15624
rtoes -16.1221
lfemur -58.0419 -8.35382 -26.9752
ltibia 63.7281
lfoot -13.7854 -22.4979
ltoes -3.95997
274
root 0.590745 15.819 -16.7235 374.014 23.6842 9.72518
lowerback 84.5636 -7.95721 10.687
upperback 7.15074 1.58969 -3.85905
thorax -11.2251 1.54639 -9.43582
lowerneck -2.33824 -9.0747 -2.12958
upperneck 6.49673 -12.349 7.44802
head 3.19194 -5.91252 2.32643
rclavicle -3.18055e-015 -1.48592e-014
rhumerus 223.81 -165.736 -256.555
rradius 7.43748
rwrist 40.2455
rhand -23.7556 7.42384
rfingers 7.12502
rthumb 2.71337 -22.5386
lclavicle -3.18055e-015 -1.48592e-014
lhumerus -23.612 -18.0799 95.0697
lradius 52.4027
lwrist 14.0485
lhand -7.54551 -7.58341
lfingers 7.12502
lthumb 18.3461 21.5714
rfemur -52.1809 -9.48412 4.64874
rtibia 70.9371
rfoot -27.9933 -8.2868
rtoes -15.9685
lfemur -57.4077 -8.51317 -26.6329
ltibia 63.0835
lfoot -13.729 -22.0886
ltoes -4.04286
275
root 0.612957 15.8779 -16.7186 373.719 23.5381 9.3868
lowerback 84.1342 -7.82575 10.5964
upperback 7.22974 1.54366 -3.89849
thorax -11.2156 1.52166 -9.43955
lowerneck -2.14151 -8.94426 -1.97458
upperneck 6.41207 -12.1664 7.27942
head 3.09005 -5.83038 2.26418
rclavicle -3.18055e-015 -3.27995e-015
rhumerus 222.64 -166.068 -256.34
rradius 7.7591
rwrist 40.0508
rhand -23.837 7.30231
rfingers 7.12502
rthumb 2.63479 -22.6612
lclavicle -3.18055e-015 -3.27995e-015
lhumerus -23.6499 -17.9262 94.9807
lradius 52.1957
lwrist 14.0893
lhand -7.6147 -7.69346
lfingers 7.12502
lthumb 18.2795 21.4676
rfemur -51.421 -9.11772 4.87141
rtibia 69.9826
rfoot -27.757 -8.43016
rtoes -15.8364
lfemur -56.7451 -8.66971 -26.2873
ltibia 62.4282
lfoot -13.7053 -21.6729
ltoes -4.24029
276
root 0.636732 15.9437 -16.7146 373.431 23.3859 9.04524
lowerback 83.6591 -7.66469 10.4971
upperback 7.30944 1.51629 -3.92453
thorax -11.2097 1.50131 -9.43196
lowerneck -1.97264 -8.82065 -1.75323
upperneck 6.34553 -11.9924 7.04717
head 2.99094 -5.75131 2.16766
rclavicle 6.36111e-015 -6.50026e-014
rhumerus 221.413 -166.41 -256.107
rradius 8.12603
rwrist 39.6778
rhand -23.8721 7.21846
rfingers 7.12502
rthumb 2.60092 -22.7454
lclavicle 6.36111e-015 -6.50026e-014
lhumerus -23.6623 -17.7439 94.8934
lradius 51.9307
lwrist 14.152
lhand -7.63679 -7.81319
lfingers 7.12502
lthumb 18.2583 21.3499
rfemur -50.6327 -8.77713 5.10976
rtibia 68.9678
rfoot -27.5 -8.56436
rtoes -15.7568
lfemur -56.0517 -8.83857 -25.9415
ltibia 61.7355
lfoot -13.6412 -21.2566
ltoes -4.31711
277
root 0.660591 15.9997 -16.7076 373.144 23.2271 8.72371
lowerback 83.1434 -7.48775 10.3741
upperback 7.40666 1.48315 -3.94444
thorax -11.1904 1.47962 -9.40529
lowerneck -1.90311 -8.70442 -1.58949
upperneck 6.33898 -11.8319 6.83607
head 2.93854 -5.67605 2.0817
rclavicle 1.59028e-014 -5.43676e-014
rhumerus 220.155 -166.799 -255.895
rradius 8.56696
rwrist 39.2571
rhand -23.8106 7.09626
rfingers 7.12502
rthumb 2.66023 -22.8669
lclavicle 1.59028e-014 -5.43676e-014
lhumerus -23.6486 -17.5058 94.7991
lradius 51.6196
lwrist 14.105
lhand -7.65215 -7.96217
lfingers 7.12502
lthumb 18.2435 21.2023
rfemur -49.8717 -8.42904 5.32157
rtibia 67.9946
rfoot -27.2488 -8.69778
rtoes -15.6648
lfemur -55.3792 -8.99066 -25.6307
ltibia 61.0831
lfoot -13.642 -20.8287
ltoes -4.57417
